{"glyphs":{":":{"x_min":0,"x_max":278,"ha":278,"o":"m 179 445 q 195 429 195 407 q 195 386 179 369 q 163 353 141 353 q 119 353 103 369 q 87 385 87 407 q 87 430 103 445 q 119 461 141 461 q 163 461 179 445 z m 179 79 q 195 63 195 41 q 195 19 178 2 q 162 -14 140 -14 q 119 -14 102 2 q 86 20 86 41 q 86 63 102 79 q 118 95 140 95 q 162 95 179 79 z"},"?":{"x_min":0,"x_max":444,"ha":444,"o":"m 215 171 l 176 171 l 163 334 l 233 348 q 275 356 294 391 q 313 425 313 490 q 313 562 287 592 q 261 621 196 621 q 141 621 101 597 l 84 517 l 52 517 l 52 641 q 129 662 196 662 q 403 662 403 496 q 403 417 364 368 q 324 320 249 304 l 221 298 z m 259 45 q 259 21 242 3 q 225 -14 200 -14 q 175 -14 158 3 q 141 21 141 45 q 141 70 158 87 q 175 104 200 104 q 225 104 242 87 q 259 70 259 45 z"},"<":{"x_min":0,"x_max":584,"ha":584,"o":"m 55 253 l 55 335 l 529 535 l 529 448 l 153 294 l 529 138 l 529 50 z"},"=":{"x_min":0,"x_max":795,"ha":795,"o":"m 108 143 l 108 205 l 686 205 l 686 143 z m 108 386 l 108 449 l 686 449 l 686 386 z"},"3":{"x_min":0,"x_max":500,"ha":500,"o":"m 461 178 q 461 90 400 40 q 340 -10 229 -10 q 136 -10 53 11 l 48 149 l 80 149 l 102 57 q 121 46 156 39 q 191 31 221 31 q 298 31 334 66 q 371 101 371 183 q 371 248 337 281 q 304 314 233 318 l 163 322 l 163 362 l 233 366 q 288 369 314 400 q 341 432 341 495 q 341 561 312 591 q 284 621 221 621 q 195 621 167 614 q 139 607 117 595 l 100 515 l 68 515 l 68 641 q 116 654 151 658 q 187 662 221 662 q 431 662 431 501 q 431 433 394 393 q 356 353 288 343 q 377 333 419 292 q 461 251 461 178 z"},";":{"x_min":0,"x_max":278,"ha":278,"o":"m 138 461 q 159 461 175 445 q 192 430 192 408 q 192 386 176 370 q 160 354 138 354 q 116 354 100 370 q 83 386 83 408 q 83 430 100 445 q 115 461 138 461 z m 69 -167 l 69 -145 q 114 -130 143 -99 q 175 -64 175 -20 q 175 -5 164 0 l 122 -14 q 69 -14 69 40 q 69 64 88 81 q 107 98 132 98 q 170 98 194 65 q 215 36 215 -5 q 215 -119 69 -167 z"},"\"":{"x_min":0,"x_max":355,"ha":355,"o":"m 70 462 l 54 530 q 46 571 46 599 l 46 716 l 146 716 l 146 599 q 146 565 124 462 z m 232 462 l 216 530 q 208 569 208 599 l 208 716 l 308 716 l 308 599 q 308 576 285 462 z"},"7":{"x_min":0,"x_max":500,"ha":500,"o":"m 98 500 l 66 500 l 66 655 l 471 655 l 471 617 l 179 0 l 116 0 l 403 580 l 115 580 z"},"}":{"x_min":0,"x_max":382,"ha":382,"o":"m 45 -221 l 45 -205 l 67 -204 q 143 -191 143 -86 q 143 -39 140 55 q 137 147 137 195 q 137 261 202 295 q 137 326 137 395 q 137 441 140 536 q 143 630 143 677 q 143 794 45 794 l 45 810 l 50 810 q 114 810 148 769 q 182 727 182 661 q 182 608 176 514 q 170 416 170 367 q 170 303 234 303 l 242 303 l 242 287 l 221 286 q 170 279 170 223 q 170 174 176 76 q 182 -19 182 -71 q 182 -221 45 -221 z"},")":{"x_min":0,"x_max":340,"ha":340,"o":"m 60 -212 q 203 -74 203 313 q 203 695 60 838 l 60 863 q 167 778 216 612 q 256 481 256 313 q 256 -77 60 -236 z"},"&":{"x_min":0,"x_max":778,"ha":778,"o":"m 474 426 l 679 426 l 679 408 q 641 404 616 390 q 602 383 538 280 q 463 160 456 151 q 534 60 602 60 q 672 60 693 132 l 711 119 q 677 -15 560 -15 q 476 -15 388 80 q 277 -15 175 -15 q 103 -15 54 21 q 0 62 0 131 q 0 265 203 370 q 163 458 163 515 q 163 589 210 633 q 258 677 333 677 q 390 677 427 645 q 465 613 465 558 q 465 461 304 382 q 374 262 433 180 q 519 283 519 352 q 519 408 474 408 z m 287 414 q 408 471 408 560 q 408 594 387 618 q 365 641 332 641 q 294 641 270 616 q 246 590 246 552 q 246 506 287 414 z m 363 108 q 258 252 219 337 q 101 272 101 175 q 101 118 135 81 q 169 44 226 44 q 285 44 363 108 z"},"_":{"x_min":0,"x_max":500,"ha":500,"o":"m -8 -129 l -8 -79 l 508 -79 l 508 -129 z"},"(":{"x_min":0,"x_max":340,"ha":340,"o":"m 280 -212 l 280 -236 q 84 -72 84 313 q 84 702 280 863 l 280 838 q 137 697 137 313 q 137 -75 280 -212 z"},"-":{"x_min":0,"x_max":333,"ha":333,"o":"m 32 245 l 32 333 l 302 333 l 302 245 z"},">":{"x_min":0,"x_max":584,"ha":584,"o":"m 529 253 l 55 50 l 55 138 l 430 294 l 55 448 l 55 535 l 529 335 z"},"8":{"x_min":0,"x_max":500,"ha":500,"o":"m 442 495 q 442 441 416 404 q 390 367 345 347 q 401 327 431 283 q 462 239 462 177 q 462 84 410 37 q 357 -10 247 -10 q 38 -10 38 177 q 38 242 69 284 q 101 327 154 347 q 111 367 85 404 q 58 441 58 495 q 58 576 108 621 q 157 665 251 665 q 342 665 392 621 q 442 577 442 495 z m 374 177 q 374 255 344 290 q 313 325 247 325 q 183 325 154 292 q 126 258 126 177 q 126 94 155 62 q 184 29 247 29 q 312 29 343 63 q 374 97 374 177 z m 354 495 q 354 562 328 594 q 301 626 248 626 q 196 626 171 595 q 146 564 146 495 q 146 427 170 398 q 195 368 248 368 q 303 368 328 398 q 354 428 354 495 z"},"%":{"x_min":0,"x_max":833,"ha":833,"o":"m 141 677 q 209 677 248 619 q 281 569 281 497 q 281 426 248 376 q 210 319 142 319 q 75 319 35 376 q 0 427 0 497 q 0 566 35 618 q 75 677 141 677 z m 142 650 q 78 650 78 498 q 78 344 140 344 q 204 344 204 495 q 204 650 142 650 z m 645 677 l 162 -27 l 119 -27 l 601 677 z m 624 329 q 691 329 729 271 q 763 219 763 150 q 763 81 730 30 q 691 -27 624 -27 q 558 -27 518 30 q 482 82 482 150 q 482 220 517 271 q 557 329 624 329 z m 624 303 q 560 303 560 147 q 560 0 623 0 q 686 0 686 149 q 686 303 624 303 z"},"#":{"x_min":0,"x_max":556,"ha":556,"o":"m 50 -12 l 92 196 l 10 196 l 10 269 l 107 269 l 143 446 l 10 446 l 10 519 l 158 519 l 201 728 l 273 728 l 231 519 l 385 519 l 428 728 l 501 728 l 458 519 l 543 519 l 543 446 l 444 446 l 407 269 l 543 269 l 543 196 l 393 196 l 351 -12 l 277 -12 l 319 196 l 166 196 l 124 -12 z m 180 269 l 334 269 l 370 446 l 217 446 z"},",":{"x_min":0,"x_max":250,"ha":250,"o":"m 54 -167 l 54 -145 q 99 -129 127 -99 q 159 -63 159 -20 l 155 -4 l 148 0 l 106 -14 q 54 -14 54 40 q 54 64 73 82 q 92 98 117 98 q 154 98 178 64 q 199 33 199 -5 q 199 -119 54 -167 z"},"|":{"x_min":0,"x_max":397,"ha":397,"o":"m 175 -215 l 175 791 l 223 791 l 223 -215 z"},".":{"x_min":0,"x_max":250,"ha":250,"o":"m 179 41 q 179 19 163 2 q 147 -14 125 -14 q 104 -14 87 2 q 71 20 71 41 q 71 63 87 79 q 103 95 125 95 q 147 95 163 79 q 179 63 179 41 z"},"*":{"x_min":0,"x_max":389,"ha":389,"o":"m 31 584 l 54 654 q 97 639 166 606 q 164 640 156 728 l 228 728 q 228 681 216 607 q 265 632 332 654 l 354 584 q 295 565 232 557 q 258 535 316 465 l 258 423 q 219 477 191 528 q 163 479 127 423 l 69 465 q 99 504 150 557 q 106 565 31 584 z"},"!":{"x_min":0,"x_max":296,"ha":296,"o":"m 156 175 l 137 175 l 108 392 q 91 523 91 609 q 91 636 106 657 q 121 677 147 677 q 202 677 202 604 q 202 519 185 389 z m 184 78 q 200 62 200 41 q 200 19 184 2 q 168 -14 146 -14 q 125 -14 108 2 q 92 20 92 41 q 92 62 108 78 q 125 94 146 94 q 167 94 184 78 z"},"/":{"x_min":0,"x_max":278,"ha":278,"o":"m 0 -12 l 208 728 l 278 728 l 71 -12 z"},"[":{"x_min":0,"x_max":282,"ha":282,"o":"m 73 -197 l 73 792 l 246 792 l 246 758 l 121 758 l 121 -162 l 246 -162 l 246 -197 z"},"6":{"x_min":0,"x_max":500,"ha":500,"o":"m 470 203 q 470 101 419 46 q 367 -10 270 -10 q 160 -10 101 76 q 43 162 43 323 q 43 429 74 505 q 104 582 160 622 q 215 662 288 662 q 359 662 430 645 l 430 532 l 398 532 l 381 599 q 365 608 337 615 q 310 621 288 621 q 217 621 177 552 q 137 483 133 350 q 213 392 293 392 q 379 392 425 344 q 470 295 470 203 z m 268 29 q 327 29 354 67 q 380 105 380 194 q 380 274 355 310 q 330 345 275 345 q 208 345 133 321 q 133 172 167 100 q 200 29 268 29 z"},"2":{"x_min":0,"x_max":500,"ha":500,"o":"m 445 0 l 44 0 l 44 72 l 135 154 q 222 231 263 278 q 304 326 322 376 q 340 426 340 491 q 340 555 311 588 q 282 621 217 621 q 191 621 164 614 q 136 607 115 595 l 98 515 l 66 515 l 66 641 q 155 662 217 662 q 324 662 378 617 q 432 573 432 491 q 432 437 411 388 q 390 339 346 291 q 302 243 200 157 q 157 120 108 75 l 445 75 z"},"{":{"x_min":0,"x_max":382,"ha":382,"o":"m 242 -221 l 237 -221 q 171 -221 137 -177 q 105 -137 105 -71 l 106 224 q 106 287 45 287 l 45 303 l 63 304 q 106 312 106 367 l 105 662 q 105 729 141 770 q 176 810 242 810 l 242 794 l 220 792 l 202 788 q 146 766 144 676 l 140 395 q 139 326 76 295 q 139 265 140 194 l 144 -86 q 146 -204 240 -205 q 241 -205 242 -205 z"},"9":{"x_min":0,"x_max":500,"ha":500,"o":"m 32 455 q 32 554 87 608 q 143 662 243 662 q 355 662 407 582 q 459 501 459 329 q 459 165 392 77 q 325 -10 204 -10 q 125 -10 58 7 l 58 120 l 90 120 l 107 50 q 123 42 149 37 q 175 31 202 31 q 280 31 322 99 q 364 168 369 301 q 294 260 218 260 q 131 260 82 311 q 32 363 32 455 z m 244 623 q 122 623 122 453 q 122 378 151 343 q 181 307 242 307 q 305 307 369 333 q 369 483 340 553 q 310 623 244 623 z"}," ":{"x_min":0,"x_max":500,"ha":500,"o":""},"4":{"x_min":0,"x_max":500,"ha":500,"o":"m 387 144 l 387 0 l 303 0 l 303 144 l 21 144 l 21 209 l 331 658 l 387 658 l 387 214 l 486 214 l 486 144 z m 303 540 l 301 540 l 76 214 l 303 214 z"},"~":{"x_min":0,"x_max":795,"ha":795,"o":"m 138 257 l 108 257 q 115 413 237 413 q 293 413 412 354 q 530 296 574 296 q 645 296 656 402 l 686 402 q 677 246 557 246 q 495 246 388 305 q 281 363 219 363 q 181 363 158 328 q 138 297 138 257 z"},"^":{"x_min":0,"x_max":333,"ha":333,"o":"m 325 543 l 308 542 l 176 645 l 37 538 l 16 543 l 177 728 z"},"0":{"x_min":0,"x_max":500,"ha":500,"o":"m 462 330 q 462 -10 247 -10 q 144 -10 91 77 q 38 164 38 330 q 38 493 91 579 q 144 665 251 665 q 354 665 408 580 q 462 495 462 330 z m 372 330 q 372 487 342 557 q 312 626 247 626 q 184 626 156 561 q 128 495 128 330 q 128 164 156 96 q 185 29 247 29 q 312 29 342 100 q 372 171 372 330 z"},"`":{"x_min":0,"x_max":333,"ha":333,"o":"m 57 721 l 167 721 l 218 552 l 201 552 z"},"]":{"x_min":0,"x_max":282,"ha":282,"o":"m 209 -197 l 36 -197 l 36 -161 l 161 -161 l 161 758 l 36 758 l 36 792 l 209 792 z"},"+":{"x_min":0,"x_max":584,"ha":584,"o":"m 250 56 l 250 252 l 56 252 l 56 334 l 250 334 l 250 529 l 333 529 l 333 334 l 528 334 l 528 252 l 333 252 l 333 56 z"},"1":{"x_min":0,"x_max":500,"ha":500,"o":"m 306 39 l 440 26 l 440 0 l 88 0 l 88 26 l 222 39 l 222 573 l 90 526 l 90 552 l 281 660 l 306 660 z"},"5":{"x_min":0,"x_max":500,"ha":500,"o":"m 237 383 q 350 383 406 336 q 461 290 461 195 q 461 96 401 43 q 341 -10 229 -10 q 136 -10 63 11 l 58 149 l 90 149 l 112 57 q 134 45 164 38 q 194 31 221 31 q 298 31 335 67 q 371 104 371 190 q 371 250 355 281 q 340 312 306 327 q 271 342 214 342 q 169 342 127 330 l 80 330 l 80 655 l 412 655 l 412 580 l 124 580 l 124 371 q 177 383 237 383 z"}}}
